<svg width="600" height="550" viewBox="0 0 600 550" fill="none" xmlns="http://www.w3.org/2000/svg">
<path d="M34.799 180.552V103.377H46.139C50.444 103.377 54.0315 104.322 56.9015 106.212C59.8065 108.102 61.9765 110.779 63.4115 114.245C64.8465 117.71 65.564 121.787 65.564 126.477C65.564 131.167 64.8115 135.21 63.3065 138.605C61.8015 142 59.5965 144.66 56.6915 146.585C53.8215 148.474 50.304 149.507 46.139 149.682V180.552H34.799ZM46.139 138.132C48.134 138.132 49.709 137.747 50.864 136.977C52.019 136.172 52.8415 134.912 53.3315 133.197C53.8565 131.482 54.119 129.277 54.119 126.582C54.119 123.852 53.8565 121.629 53.3315 119.914C52.8415 118.199 52.0015 116.939 50.8115 116.134C49.6565 115.329 48.099 114.927 46.139 114.927V138.132ZM102.058 181.392C98.908 181.392 96.1955 180.657 93.9205 179.187C91.6805 177.717 89.948 175.722 88.723 173.202C87.533 170.682 86.938 167.847 86.938 164.697V119.232C86.938 116.047 87.533 113.212 88.723 110.727C89.948 108.207 91.6805 106.212 93.9205 104.742C96.1955 103.272 98.908 102.537 102.058 102.537C105.208 102.537 107.903 103.272 110.143 104.742C112.418 106.212 114.151 108.207 115.341 110.727C116.566 113.247 117.178 116.082 117.178 119.232V164.697C117.178 167.847 116.566 170.682 115.341 173.202C114.151 175.722 112.418 177.717 110.143 179.187C107.903 180.657 105.208 181.392 102.058 181.392ZM102.058 170.367C103.458 170.367 104.438 169.79 104.998 168.635C105.558 167.445 105.838 166.132 105.838 164.697V119.232C105.838 117.797 105.541 116.502 104.946 115.347C104.351 114.157 103.388 113.562 102.058 113.562C100.763 113.562 99.8005 114.157 99.1705 115.347C98.5755 116.502 98.278 117.797 98.278 119.232V164.697C98.278 166.132 98.5755 167.445 99.1705 168.635C99.7655 169.79 100.728 170.367 102.058 170.367ZM148.615 180.552L138.22 103.377H148.72L153.235 143.487L153.445 146.007H154.285L154.6 143.487L159.43 103.377H167.62L172.45 143.487L172.765 146.007H173.605L173.815 143.487L178.33 103.377H188.83L178.435 180.552H169.615L164.365 144.012L163.735 139.497H163.315L162.685 144.012L157.435 180.552H148.615ZM210.325 180.552V103.377H236.26V115.032H221.665V135.822H232.165V147.162H221.665V168.897H236.26V180.552H210.325ZM260.426 180.552V103.377H271.766C278.556 103.377 283.561 105.267 286.781 109.047C290.001 112.792 291.611 118.322 291.611 125.637C291.611 129.977 290.841 133.739 289.301 136.925C287.796 140.074 285.958 142.384 283.788 143.854L291.506 180.552H280.166L273.761 148.002H271.766V180.552H260.426ZM271.766 137.502C273.866 137.502 275.528 137.047 276.753 136.137C277.978 135.192 278.853 133.862 279.378 132.147C279.903 130.432 280.166 128.402 280.166 126.057C280.166 122.382 279.553 119.565 278.328 117.605C277.138 115.61 274.951 114.612 271.766 114.612V137.502ZM313.705 180.552V103.377H325.255C329.175 103.377 332.553 104.077 335.388 105.477C338.258 106.842 340.463 108.995 342.003 111.934C343.578 114.874 344.365 118.672 344.365 123.327C344.365 127.037 343.875 130.275 342.895 133.04C341.95 135.805 340.095 138.062 337.33 139.812C340.13 141.352 342.143 143.802 343.368 147.162C344.593 150.487 345.205 154.337 345.205 158.712C345.205 163.017 344.505 166.815 343.105 170.105C341.74 173.395 339.71 175.967 337.015 177.822C334.355 179.642 331.065 180.552 327.145 180.552H313.705ZM325.045 169.317C328.475 169.317 330.733 168.302 331.818 166.272C332.903 164.207 333.445 161.267 333.445 157.452C333.445 153.567 332.903 150.627 331.818 148.632C330.733 146.602 328.475 145.587 325.045 145.587V169.317ZM325.045 135.192C328.23 135.192 330.418 134.317 331.608 132.567C332.833 130.817 333.445 128.227 333.445 124.797C333.445 121.332 332.815 118.777 331.555 117.132C330.33 115.452 328.16 114.612 325.045 114.612V135.192ZM382.297 181.392C379.147 181.392 376.435 180.657 374.16 179.187C371.92 177.717 370.187 175.722 368.962 173.202C367.772 170.682 367.177 167.847 367.177 164.697V119.232C367.177 116.047 367.772 113.212 368.962 110.727C370.187 108.207 371.92 106.212 374.16 104.742C376.435 103.272 379.147 102.537 382.297 102.537C385.447 102.537 388.142 103.272 390.382 104.742C392.657 106.212 394.39 108.207 395.58 110.727C396.805 113.247 397.417 116.082 397.417 119.232V164.697C397.417 167.847 396.805 170.682 395.58 173.202C394.39 175.722 392.657 177.717 390.382 179.187C388.142 180.657 385.447 181.392 382.297 181.392ZM382.297 170.367C383.697 170.367 384.677 169.79 385.237 168.635C385.797 167.445 386.077 166.132 386.077 164.697V119.232C386.077 117.797 385.78 116.502 385.185 115.347C384.59 114.157 383.627 113.562 382.297 113.562C381.002 113.562 380.04 114.157 379.41 115.347C378.815 116.502 378.517 117.797 378.517 119.232V164.697C378.517 166.132 378.815 167.445 379.41 168.635C380.005 169.79 380.967 170.367 382.297 170.367ZM435.679 181.392C432.529 181.392 429.817 180.657 427.542 179.187C425.302 177.717 423.569 175.722 422.344 173.202C421.154 170.682 420.559 167.847 420.559 164.697V119.232C420.559 116.047 421.154 113.212 422.344 110.727C423.569 108.207 425.302 106.212 427.542 104.742C429.817 103.272 432.529 102.537 435.679 102.537C438.829 102.537 441.524 103.272 443.764 104.742C446.039 106.212 447.772 108.207 448.962 110.727C450.187 113.247 450.799 116.082 450.799 119.232V164.697C450.799 167.847 450.187 170.682 448.962 173.202C447.772 175.722 446.039 177.717 443.764 179.187C441.524 180.657 438.829 181.392 435.679 181.392ZM435.679 170.367C437.079 170.367 438.059 169.79 438.619 168.635C439.179 167.445 439.459 166.132 439.459 164.697V119.232C439.459 117.797 439.162 116.502 438.567 115.347C437.972 114.157 437.009 113.562 435.679 113.562C434.384 113.562 433.422 114.157 432.792 115.347C432.197 116.502 431.899 117.797 431.899 119.232V164.697C431.899 166.132 432.197 167.445 432.792 168.635C433.387 169.79 434.349 170.367 435.679 170.367ZM488.116 181.392C485.001 181.392 482.411 180.885 480.346 179.87C478.281 178.82 476.653 177.315 475.463 175.355C474.273 173.395 473.416 171.032 472.891 168.267C472.401 165.502 472.156 162.387 472.156 158.922L483.286 157.872C483.286 159.552 483.338 161.18 483.443 162.755C483.583 164.295 483.811 165.695 484.126 166.955C484.476 168.18 484.966 169.16 485.596 169.895C486.261 170.63 487.101 170.997 488.116 170.997C489.796 170.997 490.986 170.227 491.686 168.687C492.386 167.112 492.736 165.222 492.736 163.017C492.736 160.812 492.158 158.52 491.003 156.14C489.848 153.759 488.466 151.502 486.856 149.367C484.126 145.727 481.728 142.35 479.663 139.234C477.633 136.119 476.041 133.057 474.886 130.047C473.766 127.037 473.206 123.887 473.206 120.597C473.206 118.007 473.538 115.627 474.203 113.457C474.868 111.252 475.831 109.344 477.091 107.734C478.386 106.089 479.943 104.812 481.763 103.902C483.583 102.992 485.666 102.537 488.011 102.537C490.916 102.537 493.366 103.027 495.361 104.007C497.391 104.987 499.018 106.387 500.243 108.207C501.503 110.027 502.413 112.197 502.973 114.717C503.568 117.202 503.866 119.967 503.866 123.012L492.736 124.062C492.736 122.767 492.666 121.472 492.526 120.177C492.421 118.847 492.211 117.639 491.896 116.554C491.581 115.47 491.126 114.595 490.531 113.929C489.936 113.264 489.166 112.932 488.221 112.932C486.751 112.932 485.736 113.562 485.176 114.822C484.616 116.047 484.336 117.797 484.336 120.072C484.336 123.012 485.123 125.847 486.698 128.577C488.273 131.307 490.391 134.492 493.051 138.132C496.236 142.437 498.826 146.392 500.821 149.997C502.851 153.602 503.866 157.592 503.866 161.967C503.866 164.732 503.568 167.305 502.973 169.685C502.378 172.03 501.433 174.077 500.138 175.827C498.878 177.577 497.251 178.942 495.256 179.922C493.296 180.902 490.916 181.392 488.116 181.392ZM533.254 180.552V115.032H522.544V103.377H555.304V115.032H544.594V180.552H533.254ZM34.799 306.552V229.377H46.139C50.444 229.377 54.0315 230.322 56.9015 232.212C59.8065 234.102 61.9765 236.779 63.4115 240.245C64.8465 243.71 65.564 247.787 65.564 252.477C65.564 257.167 64.8115 261.21 63.3065 264.605C61.8015 268 59.5965 270.66 56.6915 272.585C53.8215 274.474 50.304 275.507 46.139 275.682V306.552H34.799ZM46.139 264.132C48.134 264.132 49.709 263.747 50.864 262.977C52.019 262.172 52.8415 260.912 53.3315 259.197C53.8565 257.482 54.119 255.277 54.119 252.582C54.119 249.852 53.8565 247.629 53.3315 245.914C52.8415 244.199 52.0015 242.939 50.8115 242.134C49.6565 241.329 48.099 240.927 46.139 240.927V264.132ZM102.058 307.392C98.908 307.392 96.1955 306.657 93.9205 305.187C91.6805 303.717 89.948 301.722 88.723 299.202C87.533 296.682 86.938 293.847 86.938 290.697V245.232C86.938 242.047 87.533 239.212 88.723 236.727C89.948 234.207 91.6805 232.212 93.9205 230.742C96.1955 229.272 98.908 228.537 102.058 228.537C105.208 228.537 107.903 229.272 110.143 230.742C112.418 232.212 114.151 234.207 115.341 236.727C116.566 239.247 117.178 242.082 117.178 245.232V290.697C117.178 293.847 116.566 296.682 115.341 299.202C114.151 301.722 112.418 303.717 110.143 305.187C107.903 306.657 105.208 307.392 102.058 307.392ZM102.058 296.367C103.458 296.367 104.438 295.79 104.998 294.635C105.558 293.445 105.838 292.132 105.838 290.697V245.232C105.838 243.797 105.541 242.502 104.946 241.347C104.351 240.157 103.388 239.562 102.058 239.562C100.763 239.562 99.8005 240.157 99.1705 241.347C98.5755 242.502 98.278 243.797 98.278 245.232V290.697C98.278 292.132 98.5755 293.445 99.1705 294.635C99.7655 295.79 100.728 296.367 102.058 296.367ZM148.615 306.552L138.22 229.377H148.72L153.235 269.487L153.445 272.007H154.285L154.6 269.487L159.43 229.377H167.62L172.45 269.487L172.765 272.007H173.605L173.815 269.487L178.33 229.377H188.83L178.435 306.552H169.615L164.365 270.012L163.735 265.497H163.315L162.685 270.012L157.435 306.552H148.615ZM210.325 306.552V229.377H236.26V241.032H221.665V261.822H232.165V273.162H221.665V294.897H236.26V306.552H210.325ZM260.426 306.552V229.377H271.766C278.556 229.377 283.561 231.267 286.781 235.047C290.001 238.792 291.611 244.322 291.611 251.637C291.611 255.977 290.841 259.739 289.301 262.925C287.796 266.074 285.958 268.384 283.788 269.854L291.506 306.552H280.166L273.761 274.002H271.766V306.552H260.426ZM271.766 263.502C273.866 263.502 275.528 263.047 276.753 262.137C277.978 261.192 278.853 259.862 279.378 258.147C279.903 256.432 280.166 254.402 280.166 252.057C280.166 248.382 279.553 245.565 278.328 243.605C277.138 241.61 274.951 240.612 271.766 240.612V263.502ZM313.705 306.552V229.377H325.255C329.175 229.377 332.553 230.077 335.388 231.477C338.258 232.842 340.463 234.995 342.003 237.934C343.578 240.874 344.365 244.672 344.365 249.327C344.365 253.037 343.875 256.275 342.895 259.04C341.95 261.805 340.095 264.062 337.33 265.812C340.13 267.352 342.143 269.802 343.368 273.162C344.593 276.487 345.205 280.337 345.205 284.712C345.205 289.017 344.505 292.815 343.105 296.105C341.74 299.395 339.71 301.967 337.015 303.822C334.355 305.642 331.065 306.552 327.145 306.552H313.705ZM325.045 295.317C328.475 295.317 330.733 294.302 331.818 292.272C332.903 290.207 333.445 287.267 333.445 283.452C333.445 279.567 332.903 276.627 331.818 274.632C330.733 272.602 328.475 271.587 325.045 271.587V295.317ZM325.045 261.192C328.23 261.192 330.418 260.317 331.608 258.567C332.833 256.817 333.445 254.227 333.445 250.797C333.445 247.332 332.815 244.777 331.555 243.132C330.33 241.452 328.16 240.612 325.045 240.612V261.192ZM382.297 307.392C379.147 307.392 376.435 306.657 374.16 305.187C371.92 303.717 370.187 301.722 368.962 299.202C367.772 296.682 367.177 293.847 367.177 290.697V245.232C367.177 242.047 367.772 239.212 368.962 236.727C370.187 234.207 371.92 232.212 374.16 230.742C376.435 229.272 379.147 228.537 382.297 228.537C385.447 228.537 388.142 229.272 390.382 230.742C392.657 232.212 394.39 234.207 395.58 236.727C396.805 239.247 397.417 242.082 397.417 245.232V290.697C397.417 293.847 396.805 296.682 395.58 299.202C394.39 301.722 392.657 303.717 390.382 305.187C388.142 306.657 385.447 307.392 382.297 307.392ZM382.297 296.367C383.697 296.367 384.677 295.79 385.237 294.635C385.797 293.445 386.077 292.132 386.077 290.697V245.232C386.077 243.797 385.78 242.502 385.185 241.347C384.59 240.157 383.627 239.562 382.297 239.562C381.002 239.562 380.04 240.157 379.41 241.347C378.815 242.502 378.517 243.797 378.517 245.232V290.697C378.517 292.132 378.815 293.445 379.41 294.635C380.005 295.79 380.967 296.367 382.297 296.367ZM435.679 307.392C432.529 307.392 429.817 306.657 427.542 305.187C425.302 303.717 423.569 301.722 422.344 299.202C421.154 296.682 420.559 293.847 420.559 290.697V245.232C420.559 242.047 421.154 239.212 422.344 236.727C423.569 234.207 425.302 232.212 427.542 230.742C429.817 229.272 432.529 228.537 435.679 228.537C438.829 228.537 441.524 229.272 443.764 230.742C446.039 232.212 447.772 234.207 448.962 236.727C450.187 239.247 450.799 242.082 450.799 245.232V290.697C450.799 293.847 450.187 296.682 448.962 299.202C447.772 301.722 446.039 303.717 443.764 305.187C441.524 306.657 438.829 307.392 435.679 307.392ZM435.679 296.367C437.079 296.367 438.059 295.79 438.619 294.635C439.179 293.445 439.459 292.132 439.459 290.697V245.232C439.459 243.797 439.162 242.502 438.567 241.347C437.972 240.157 437.009 239.562 435.679 239.562C434.384 239.562 433.422 240.157 432.792 241.347C432.197 242.502 431.899 243.797 431.899 245.232V290.697C431.899 292.132 432.197 293.445 432.792 294.635C433.387 295.79 434.349 296.367 435.679 296.367ZM488.116 307.392C485.001 307.392 482.411 306.885 480.346 305.87C478.281 304.82 476.653 303.315 475.463 301.355C474.273 299.395 473.416 297.032 472.891 294.267C472.401 291.502 472.156 288.387 472.156 284.922L483.286 283.872C483.286 285.552 483.338 287.18 483.443 288.755C483.583 290.295 483.811 291.695 484.126 292.955C484.476 294.18 484.966 295.16 485.596 295.895C486.261 296.63 487.101 296.997 488.116 296.997C489.796 296.997 490.986 296.227 491.686 294.687C492.386 293.112 492.736 291.222 492.736 289.017C492.736 286.812 492.158 284.52 491.003 282.14C489.848 279.759 488.466 277.502 486.856 275.367C484.126 271.727 481.728 268.35 479.663 265.234C477.633 262.119 476.041 259.057 474.886 256.047C473.766 253.037 473.206 249.887 473.206 246.597C473.206 244.007 473.538 241.627 474.203 239.457C474.868 237.252 475.831 235.344 477.091 233.734C478.386 232.089 479.943 230.812 481.763 229.902C483.583 228.992 485.666 228.537 488.011 228.537C490.916 228.537 493.366 229.027 495.361 230.007C497.391 230.987 499.018 232.387 500.243 234.207C501.503 236.027 502.413 238.197 502.973 240.717C503.568 243.202 503.866 245.967 503.866 249.012L492.736 250.062C492.736 248.767 492.666 247.472 492.526 246.177C492.421 244.847 492.211 243.639 491.896 242.554C491.581 241.47 491.126 240.595 490.531 239.929C489.936 239.264 489.166 238.932 488.221 238.932C486.751 238.932 485.736 239.562 485.176 240.822C484.616 242.047 484.336 243.797 484.336 246.072C484.336 249.012 485.123 251.847 486.698 254.577C488.273 257.307 490.391 260.492 493.051 264.132C496.236 268.437 498.826 272.392 500.821 275.997C502.851 279.602 503.866 283.592 503.866 287.967C503.866 290.732 503.568 293.305 502.973 295.685C502.378 298.03 501.433 300.077 500.138 301.827C498.878 303.577 497.251 304.942 495.256 305.922C493.296 306.902 490.916 307.392 488.116 307.392ZM533.254 306.552V241.032H522.544V229.377H555.304V241.032H544.594V306.552H533.254ZM34.799 432.552V355.377H46.139C50.444 355.377 54.0315 356.322 56.9015 358.212C59.8065 360.102 61.9765 362.779 63.4115 366.245C64.8465 369.71 65.564 373.787 65.564 378.477C65.564 383.167 64.8115 387.21 63.3065 390.605C61.8015 394 59.5965 396.66 56.6915 398.585C53.8215 400.474 50.304 401.507 46.139 401.682V432.552H34.799ZM46.139 390.132C48.134 390.132 49.709 389.747 50.864 388.977C52.019 388.172 52.8415 386.912 53.3315 385.197C53.8565 383.482 54.119 381.277 54.119 378.582C54.119 375.852 53.8565 373.629 53.3315 371.914C52.8415 370.199 52.0015 368.939 50.8115 368.134C49.6565 367.329 48.099 366.927 46.139 366.927V390.132ZM102.058 433.392C98.908 433.392 96.1955 432.657 93.9205 431.187C91.6805 429.717 89.948 427.722 88.723 425.202C87.533 422.682 86.938 419.847 86.938 416.697V371.232C86.938 368.047 87.533 365.212 88.723 362.727C89.948 360.207 91.6805 358.212 93.9205 356.742C96.1955 355.272 98.908 354.537 102.058 354.537C105.208 354.537 107.903 355.272 110.143 356.742C112.418 358.212 114.151 360.207 115.341 362.727C116.566 365.247 117.178 368.082 117.178 371.232V416.697C117.178 419.847 116.566 422.682 115.341 425.202C114.151 427.722 112.418 429.717 110.143 431.187C107.903 432.657 105.208 433.392 102.058 433.392ZM102.058 422.367C103.458 422.367 104.438 421.79 104.998 420.635C105.558 419.445 105.838 418.132 105.838 416.697V371.232C105.838 369.797 105.541 368.502 104.946 367.347C104.351 366.157 103.388 365.562 102.058 365.562C100.763 365.562 99.8005 366.157 99.1705 367.347C98.5755 368.502 98.278 369.797 98.278 371.232V416.697C98.278 418.132 98.5755 419.445 99.1705 420.635C99.7655 421.79 100.728 422.367 102.058 422.367ZM148.615 432.552L138.22 355.377H148.72L153.235 395.487L153.445 398.007H154.285L154.6 395.487L159.43 355.377H167.62L172.45 395.487L172.765 398.007H173.605L173.815 395.487L178.33 355.377H188.83L178.435 432.552H169.615L164.365 396.012L163.735 391.497H163.315L162.685 396.012L157.435 432.552H148.615ZM210.325 432.552V355.377H236.26V367.032H221.665V387.822H232.165V399.162H221.665V420.897H236.26V432.552H210.325ZM260.426 432.552V355.377H271.766C278.556 355.377 283.561 357.267 286.781 361.047C290.001 364.792 291.611 370.322 291.611 377.637C291.611 381.977 290.841 385.739 289.301 388.925C287.796 392.074 285.958 394.384 283.788 395.854L291.506 432.552H280.166L273.761 400.002H271.766V432.552H260.426ZM271.766 389.502C273.866 389.502 275.528 389.047 276.753 388.137C277.978 387.192 278.853 385.862 279.378 384.147C279.903 382.432 280.166 380.402 280.166 378.057C280.166 374.382 279.553 371.565 278.328 369.605C277.138 367.61 274.951 366.612 271.766 366.612V389.502ZM313.705 432.552V355.377H325.255C329.175 355.377 332.553 356.077 335.388 357.477C338.258 358.842 340.463 360.995 342.003 363.934C343.578 366.874 344.365 370.672 344.365 375.327C344.365 379.037 343.875 382.275 342.895 385.04C341.95 387.805 340.095 390.062 337.33 391.812C340.13 393.352 342.143 395.802 343.368 399.162C344.593 402.487 345.205 406.337 345.205 410.712C345.205 415.017 344.505 418.815 343.105 422.105C341.74 425.395 339.71 427.967 337.015 429.822C334.355 431.642 331.065 432.552 327.145 432.552H313.705ZM325.045 421.317C328.475 421.317 330.733 420.302 331.818 418.272C332.903 416.207 333.445 413.267 333.445 409.452C333.445 405.567 332.903 402.627 331.818 400.632C330.733 398.602 328.475 397.587 325.045 397.587V421.317ZM325.045 387.192C328.23 387.192 330.418 386.317 331.608 384.567C332.833 382.817 333.445 380.227 333.445 376.797C333.445 373.332 332.815 370.777 331.555 369.132C330.33 367.452 328.16 366.612 325.045 366.612V387.192ZM382.297 433.392C379.147 433.392 376.435 432.657 374.16 431.187C371.92 429.717 370.187 427.722 368.962 425.202C367.772 422.682 367.177 419.847 367.177 416.697V371.232C367.177 368.047 367.772 365.212 368.962 362.727C370.187 360.207 371.92 358.212 374.16 356.742C376.435 355.272 379.147 354.537 382.297 354.537C385.447 354.537 388.142 355.272 390.382 356.742C392.657 358.212 394.39 360.207 395.58 362.727C396.805 365.247 397.417 368.082 397.417 371.232V416.697C397.417 419.847 396.805 422.682 395.58 425.202C394.39 427.722 392.657 429.717 390.382 431.187C388.142 432.657 385.447 433.392 382.297 433.392ZM382.297 422.367C383.697 422.367 384.677 421.79 385.237 420.635C385.797 419.445 386.077 418.132 386.077 416.697V371.232C386.077 369.797 385.78 368.502 385.185 367.347C384.59 366.157 383.627 365.562 382.297 365.562C381.002 365.562 380.04 366.157 379.41 367.347C378.815 368.502 378.517 369.797 378.517 371.232V416.697C378.517 418.132 378.815 419.445 379.41 420.635C380.005 421.79 380.967 422.367 382.297 422.367ZM435.679 433.392C432.529 433.392 429.817 432.657 427.542 431.187C425.302 429.717 423.569 427.722 422.344 425.202C421.154 422.682 420.559 419.847 420.559 416.697V371.232C420.559 368.047 421.154 365.212 422.344 362.727C423.569 360.207 425.302 358.212 427.542 356.742C429.817 355.272 432.529 354.537 435.679 354.537C438.829 354.537 441.524 355.272 443.764 356.742C446.039 358.212 447.772 360.207 448.962 362.727C450.187 365.247 450.799 368.082 450.799 371.232V416.697C450.799 419.847 450.187 422.682 448.962 425.202C447.772 427.722 446.039 429.717 443.764 431.187C441.524 432.657 438.829 433.392 435.679 433.392ZM435.679 422.367C437.079 422.367 438.059 421.79 438.619 420.635C439.179 419.445 439.459 418.132 439.459 416.697V371.232C439.459 369.797 439.162 368.502 438.567 367.347C437.972 366.157 437.009 365.562 435.679 365.562C434.384 365.562 433.422 366.157 432.792 367.347C432.197 368.502 431.899 369.797 431.899 371.232V416.697C431.899 418.132 432.197 419.445 432.792 420.635C433.387 421.79 434.349 422.367 435.679 422.367ZM488.116 433.392C485.001 433.392 482.411 432.885 480.346 431.87C478.281 430.82 476.653 429.315 475.463 427.355C474.273 425.395 473.416 423.032 472.891 420.267C472.401 417.502 472.156 414.387 472.156 410.922L483.286 409.872C483.286 411.552 483.338 413.18 483.443 414.755C483.583 416.295 483.811 417.695 484.126 418.955C484.476 420.18 484.966 421.16 485.596 421.895C486.261 422.63 487.101 422.997 488.116 422.997C489.796 422.997 490.986 422.227 491.686 420.687C492.386 419.112 492.736 417.222 492.736 415.017C492.736 412.812 492.158 410.52 491.003 408.14C489.848 405.759 488.466 403.502 486.856 401.367C484.126 397.727 481.728 394.35 479.663 391.234C477.633 388.119 476.041 385.057 474.886 382.047C473.766 379.037 473.206 375.887 473.206 372.597C473.206 370.007 473.538 367.627 474.203 365.457C474.868 363.252 475.831 361.344 477.091 359.734C478.386 358.089 479.943 356.812 481.763 355.902C483.583 354.992 485.666 354.537 488.011 354.537C490.916 354.537 493.366 355.027 495.361 356.007C497.391 356.987 499.018 358.387 500.243 360.207C501.503 362.027 502.413 364.197 502.973 366.717C503.568 369.202 503.866 371.967 503.866 375.012L492.736 376.062C492.736 374.767 492.666 373.472 492.526 372.177C492.421 370.847 492.211 369.639 491.896 368.554C491.581 367.47 491.126 366.595 490.531 365.929C489.936 365.264 489.166 364.932 488.221 364.932C486.751 364.932 485.736 365.562 485.176 366.822C484.616 368.047 484.336 369.797 484.336 372.072C484.336 375.012 485.123 377.847 486.698 380.577C488.273 383.307 490.391 386.492 493.051 390.132C496.236 394.437 498.826 398.392 500.821 401.997C502.851 405.602 503.866 409.592 503.866 413.967C503.866 416.732 503.568 419.305 502.973 421.685C502.378 424.03 501.433 426.077 500.138 427.827C498.878 429.577 497.251 430.942 495.256 431.922C493.296 432.902 490.916 433.392 488.116 433.392ZM533.254 432.552V367.032H522.544V355.377H555.304V367.032H544.594V432.552H533.254Z" fill="#02234F" fill-opacity="0.1"/>
</svg>
