<svg xmlns="http://www.w3.org/2000/svg" xmlns:xlink="http://www.w3.org/1999/xlink" width="500" zoomAndPan="magnify" viewBox="0 0 375 374.999991" height="500" preserveAspectRatio="xMidYMid meet" version="1.0"><defs><clipPath id="74fb2efef8"><path d="M 28.125 81.636719 L 346.875 81.636719 L 346.875 307.386719 L 28.125 307.386719 Z M 28.125 81.636719 " clip-rule="nonzero"/></clipPath></defs><g clip-path="url(#74fb2efef8)"><path fill="#000000" d="M 341.039062 119.574219 L 328.898438 107.441406 C 325.140625 103.679688 320.132812 101.609375 314.808594 101.609375 L 67.96875 101.609375 L 67.96875 94.972656 C 67.96875 87.65625 62.011719 81.703125 54.6875 81.703125 L 34.765625 81.703125 C 31.101562 81.703125 28.125 84.675781 28.125 88.339844 C 28.125 92 31.101562 94.972656 34.765625 94.972656 L 54.6875 94.972656 L 54.6875 114.882812 L 41.40625 114.882812 C 34.082031 114.882812 28.125 120.835938 28.125 128.152344 L 28.125 154.695312 C 28.125 162.015625 34.082031 167.96875 41.40625 167.96875 L 54.6875 167.96875 L 54.6875 187.875 L 41.40625 187.875 C 34.082031 187.875 28.125 193.828125 28.125 201.148438 L 28.125 254.234375 C 28.125 261.554688 34.082031 267.503906 41.40625 267.503906 L 54.6875 267.503906 L 54.6875 300.683594 C 54.6875 304.347656 57.664062 307.320312 61.328125 307.320312 C 64.992188 307.320312 67.96875 304.347656 67.96875 300.683594 L 67.96875 274.140625 L 87.890625 274.140625 L 87.890625 287.414062 C 87.890625 294.730469 93.847656 300.683594 101.171875 300.683594 L 121.09375 300.683594 C 128.417969 300.683594 134.375 294.730469 134.375 287.414062 L 134.375 274.140625 L 154.296875 274.140625 L 154.296875 287.414062 C 154.296875 294.730469 160.253906 300.683594 167.578125 300.683594 L 280.46875 300.683594 C 287.792969 300.683594 293.75 294.730469 293.75 287.414062 L 293.75 274.140625 L 314.808594 274.140625 C 320.125 274.140625 325.132812 272.070312 328.898438 268.308594 L 341.039062 256.179688 C 344.804688 252.421875 346.875 247.417969 346.875 242.097656 L 346.875 133.65625 C 346.875 128.339844 344.804688 123.335938 341.039062 119.574219 Z M 41.40625 154.695312 L 41.40625 128.152344 L 54.6875 128.152344 L 54.6875 154.695312 Z M 41.40625 254.234375 L 41.40625 201.148438 L 54.6875 201.148438 L 54.6875 254.234375 Z M 121.09375 287.414062 L 101.171875 287.414062 L 101.171875 274.140625 L 121.09375 274.140625 Z M 280.46875 287.414062 L 167.578125 287.414062 L 167.578125 274.140625 L 280.46875 274.140625 Z M 333.59375 242.097656 C 333.59375 243.867188 332.902344 245.539062 331.648438 246.792969 L 319.507812 258.925781 C 318.253906 260.179688 316.585938 260.871094 314.808594 260.871094 L 67.96875 260.871094 L 67.96875 114.882812 L 314.808594 114.882812 C 316.582031 114.882812 318.253906 115.570312 319.507812 116.824219 L 331.648438 128.957031 C 332.902344 130.210938 333.59375 131.875 333.59375 133.65625 L 333.59375 242.101562 Z M 333.59375 242.097656 " fill-opacity="1" fill-rule="nonzero"/></g><path fill="#000000" d="M 263.867188 131.472656 C 232.742188 131.472656 207.421875 156.773438 207.421875 187.875 C 207.421875 218.976562 232.742188 244.28125 263.867188 244.28125 C 294.992188 244.28125 320.3125 218.976562 320.3125 187.875 C 320.3125 156.773438 294.992188 131.472656 263.867188 131.472656 Z M 253.070312 146.164062 C 256.527344 145.265625 260.136719 144.742188 263.867188 144.742188 C 267.953125 144.742188 271.890625 145.351562 275.640625 146.414062 C 270.792969 152.0625 265.851562 159.300781 262.253906 168.132812 C 259.996094 168.320312 257.835938 168.804688 255.851562 169.679688 C 253.574219 164.453125 252.066406 156.859375 253.070312 146.164062 Z M 270.507812 187.875 C 270.507812 191.53125 267.527344 194.511719 263.867188 194.511719 C 260.207031 194.511719 257.226562 191.53125 257.226562 187.875 C 257.226562 184.21875 260.207031 181.238281 263.867188 181.238281 C 267.527344 181.238281 270.507812 184.21875 270.507812 187.875 Z M 239.503906 152.308594 C 239.476562 164.617188 242.425781 173.402344 245.917969 179.394531 C 244.914062 181.5 244.316406 183.800781 244.113281 186.238281 C 235.3125 187.183594 227.25 186.15625 220.871094 184.65625 C 221.871094 171.246094 228.996094 159.515625 239.503906 152.308594 Z M 222.070312 198.453125 C 226.644531 199.296875 231.726562 199.898438 237.25 199.898438 C 240.523438 199.898438 243.957031 199.59375 247.457031 199.125 C 248.734375 200.976562 250.339844 202.566406 252.152344 203.894531 C 248.71875 208.519531 242.871094 213.640625 233.101562 218.074219 C 227.820312 212.707031 223.976562 205.964844 222.070312 198.445312 Z M 263.867188 231.015625 C 257.199219 231.015625 250.910156 229.457031 245.265625 226.75 C 255.929688 220.644531 262.09375 213.664062 265.566406 207.617188 C 267.972656 207.410156 270.25 206.820312 272.328125 205.832031 C 277.535156 212.964844 280.65625 220.445312 282.527344 226.707031 C 276.871094 229.4375 270.554688 231.007812 263.859375 231.007812 Z M 293.910156 218.792969 C 291.433594 211.785156 287.640625 203.894531 281.816406 196.371094 C 282.753906 194.40625 283.332031 192.269531 283.570312 190.019531 C 289.292969 190.675781 296.660156 193.175781 305.417969 199.410156 C 303.339844 206.878906 299.320312 213.535156 293.902344 218.792969 Z M 280.210938 176.546875 C 278.886719 174.652344 277.242188 173.011719 275.355469 171.671875 C 278.933594 163.554688 283.730469 157.066406 288.246094 152.320312 C 298.71875 159.515625 305.84375 171.199219 306.867188 184.578125 C 296.261719 178.417969 287.15625 176.554688 280.210938 176.554688 Z M 280.210938 176.546875 " fill-opacity="1" fill-rule="nonzero"/><path fill="#000000" d="M 137.695312 131.472656 C 106.570312 131.472656 81.25 156.773438 81.25 187.875 C 81.25 218.976562 106.570312 244.28125 137.695312 244.28125 C 168.820312 244.28125 194.140625 218.976562 194.140625 187.875 C 194.140625 156.773438 168.820312 131.472656 137.695312 131.472656 Z M 126.898438 146.164062 C 130.355469 145.265625 133.964844 144.742188 137.695312 144.742188 C 141.777344 144.742188 145.71875 145.351562 149.46875 146.414062 C 144.621094 152.0625 139.679688 159.300781 136.082031 168.132812 C 133.824219 168.320312 131.664062 168.804688 129.679688 169.679688 C 127.402344 164.453125 125.894531 156.859375 126.898438 146.164062 Z M 144.335938 187.875 C 144.335938 191.53125 141.355469 194.511719 137.695312 194.511719 C 134.035156 194.511719 131.054688 191.53125 131.054688 187.875 C 131.054688 184.21875 134.035156 181.238281 137.695312 181.238281 C 141.355469 181.238281 144.335938 184.21875 144.335938 187.875 Z M 113.332031 152.308594 C 113.304688 164.617188 116.253906 173.402344 119.746094 179.394531 C 118.742188 181.5 118.144531 183.800781 117.9375 186.238281 C 109.140625 187.183594 101.078125 186.15625 94.695312 184.65625 C 95.699219 171.246094 102.824219 159.515625 113.332031 152.308594 Z M 95.898438 198.453125 C 100.472656 199.296875 105.554688 199.898438 111.078125 199.898438 C 114.351562 199.898438 117.785156 199.59375 121.285156 199.125 C 122.5625 200.976562 124.167969 202.566406 125.980469 203.894531 C 122.546875 208.519531 116.699219 213.640625 106.929688 218.074219 C 101.648438 212.707031 97.804688 205.964844 95.898438 198.445312 Z M 137.695312 231.015625 C 131.027344 231.015625 124.738281 229.457031 119.09375 226.75 C 129.757812 220.644531 135.921875 213.664062 139.394531 207.617188 C 141.800781 207.410156 144.078125 206.820312 146.15625 205.832031 C 151.363281 212.964844 154.484375 220.445312 156.355469 226.707031 C 150.699219 229.4375 144.382812 231.007812 137.6875 231.007812 Z M 167.738281 218.792969 C 165.261719 211.785156 161.46875 203.894531 155.644531 196.371094 C 156.582031 194.40625 157.160156 192.269531 157.398438 190.019531 C 163.121094 190.675781 170.488281 193.175781 179.246094 199.410156 C 177.167969 206.878906 173.148438 213.535156 167.730469 218.792969 Z M 154.039062 176.546875 C 152.714844 174.652344 151.070312 173.011719 149.183594 171.671875 C 152.761719 163.554688 157.558594 157.066406 162.074219 152.320312 C 172.546875 159.515625 179.671875 171.199219 180.691406 184.578125 C 170.089844 178.417969 160.984375 176.554688 154.039062 176.554688 Z M 154.039062 176.546875 " fill-opacity="1" fill-rule="nonzero"/></svg>