<svg xmlns="http://www.w3.org/2000/svg" xmlns:xlink="http://www.w3.org/1999/xlink" width="500" zoomAndPan="magnify" viewBox="0 0 375 374.999991" height="500" preserveAspectRatio="xMidYMid meet" version="1.0"><defs><clipPath id="5fe5766e2d"><path d="M 37.5 65.722656 L 346.5 65.722656 L 346.5 265 L 37.5 265 Z M 37.5 65.722656 " clip-rule="nonzero"/></clipPath><clipPath id="46ebb389f2"><path d="M 94 292 L 290 292 L 290 309.472656 L 94 309.472656 Z M 94 292 " clip-rule="nonzero"/></clipPath></defs><g clip-path="url(#5fe5766e2d)"><path fill="#000000" d="M 54.203125 247.804688 L 329.796875 247.804688 L 329.796875 82.53125 L 54.203125 82.53125 Z M 338.148438 264.539062 L 45.851562 264.539062 C 41.238281 264.539062 37.5 260.792969 37.5 256.171875 L 37.5 74.167969 C 37.5 69.546875 41.238281 65.800781 45.851562 65.800781 L 338.148438 65.800781 C 342.757812 65.800781 346.5 69.546875 346.5 74.167969 L 346.5 256.171875 C 346.5 260.792969 342.757812 264.539062 338.148438 264.539062 " fill-opacity="1" fill-rule="nonzero"/></g><g clip-path="url(#46ebb389f2)"><path fill="#000000" d="M 280.875 309.378906 L 103.125 309.378906 C 98.515625 309.378906 94.773438 305.632812 94.773438 301.011719 C 94.773438 296.390625 98.515625 292.648438 103.125 292.648438 L 280.875 292.648438 C 285.488281 292.648438 289.226562 296.390625 289.226562 301.011719 C 289.226562 305.632812 285.488281 309.378906 280.875 309.378906 " fill-opacity="1" fill-rule="nonzero"/></g><path fill="#000000" d="M 216.050781 286.664062 L 167.949219 286.664062 C 163.335938 286.664062 159.597656 282.917969 159.597656 278.300781 C 159.597656 273.679688 163.335938 269.933594 167.949219 269.933594 L 216.050781 269.933594 C 220.664062 269.933594 224.402344 273.679688 224.402344 278.300781 C 224.402344 282.917969 220.664062 286.664062 216.050781 286.664062 " fill-opacity="1" fill-rule="nonzero"/></svg>