<svg xmlns="http://www.w3.org/2000/svg" xmlns:xlink="http://www.w3.org/1999/xlink" width="500" zoomAndPan="magnify" viewBox="0 0 375 374.999991" height="500" preserveAspectRatio="xMidYMid meet" version="1.0"><defs><clipPath id="7b04db4104"><path d="M 83 37.5 L 182 37.5 L 182 153 L 83 153 Z M 83 37.5 " clip-rule="nonzero"/></clipPath><clipPath id="8acaa4ba3e"><path d="M 83 37.5 L 292.238281 37.5 L 292.238281 342.75 L 83 342.75 Z M 83 37.5 " clip-rule="nonzero"/></clipPath></defs><g clip-path="url(#7b04db4104)"><path fill="#040606" d="M 173.121094 152.644531 L 173.121094 125.792969 C 173.121094 122.355469 176.542969 119.421875 181.460938 118.046875 L 181.460938 37.578125 C 126.589844 40.519531 83.074219 82.546875 83.074219 133.984375 L 83.074219 152.644531 Z M 173.121094 152.644531 " fill-opacity="1" fill-rule="nonzero"/></g><g clip-path="url(#8acaa4ba3e)"><path fill="#040606" d="M 191.992188 37.5 L 191.992188 117.648438 C 197.84375 118.753906 202.109375 121.960938 202.109375 125.792969 L 202.109375 152.644531 L 291.460938 152.644531 L 291.460938 163.160156 L 202.109375 163.160156 L 202.109375 183.910156 C 202.109375 188.652344 195.628906 192.492188 187.617188 192.492188 C 179.601562 192.492188 173.121094 188.652344 173.121094 183.910156 L 173.121094 163.160156 L 83.074219 163.160156 L 83.074219 246.164062 C 83.074219 299.511719 129.878906 342.75 187.609375 342.75 C 245.355469 342.75 292.152344 299.511719 292.152344 246.164062 L 292.152344 133.984375 C 292.152344 81.992188 247.699219 39.625 191.992188 37.5 Z M 191.992188 37.5 " fill-opacity="1" fill-rule="nonzero"/></g><path fill="#040606" d="M 180.011719 131.152344 C 180.011719 127.28125 183.410156 124.15625 187.617188 124.15625 C 191.820312 124.15625 195.222656 127.28125 195.222656 131.152344 L 195.222656 178.542969 C 195.222656 182.414062 191.820312 185.546875 187.617188 185.546875 C 183.410156 185.546875 180.011719 182.414062 180.011719 178.542969 Z M 180.011719 131.152344 " fill-opacity="1" fill-rule="nonzero"/></svg>