<svg xmlns="http://www.w3.org/2000/svg" xmlns:xlink="http://www.w3.org/1999/xlink" width="500" zoomAndPan="magnify" viewBox="0 0 375 374.999991" height="500" preserveAspectRatio="xMidYMid meet" version="1.0"><defs><clipPath id="fe13b36e8f"><path d="M 12.417969 65.527344 L 362.21875 65.527344 L 362.21875 281.195312 L 12.417969 281.195312 Z M 12.417969 65.527344 " clip-rule="nonzero"/></clipPath></defs><g clip-path="url(#fe13b36e8f)"><path fill="#040606" d="M 30.867188 131.875 L 343.804688 131.875 C 349.578125 131.875 354.269531 136.574219 354.269531 142.398438 L 354.269531 262.734375 C 354.269531 268.523438 349.578125 273.257812 343.804688 273.257812 L 30.867188 273.257812 C 25.058594 273.257812 20.371094 268.523438 20.371094 262.734375 L 20.371094 142.398438 C 20.371094 136.574219 25.058594 131.875 30.867188 131.875 Z M 252.628906 65.558594 L 247.503906 65.898438 C 248.558594 80.9375 243.1875 95.726562 232.722656 106.59375 C 229.585938 109.863281 224.648438 110.671875 220.609375 108.585938 L 201.480469 98.683594 C 195.859375 95.757812 188.933594 97.96875 186.015625 103.632812 C 185.175781 105.253906 184.742188 107.058594 184.742188 108.894531 L 184.742188 123.902344 L 30.867188 123.902344 C 20.679688 123.902344 12.417969 132.183594 12.417969 142.398438 L 12.417969 262.734375 C 12.417969 272.945312 20.679688 281.195312 30.867188 281.195312 L 343.804688 281.195312 C 353.957031 281.195312 362.21875 272.945312 362.21875 262.734375 L 362.21875 142.398438 C 362.21875 132.183594 353.957031 123.902344 343.804688 123.902344 L 189.898438 123.902344 L 189.898438 108.894531 C 189.898438 105.378906 192.722656 102.542969 196.230469 102.542969 C 197.226562 102.542969 198.21875 102.792969 199.121094 103.261719 L 218.25 113.160156 C 224.304688 116.304688 231.695312 115.09375 236.417969 110.171875 C 247.875 98.25 253.777344 82.058594 252.628906 65.558594 " fill-opacity="1" fill-rule="nonzero"/></g><path fill="#040606" d="M 53.195312 143.890625 L 36.796875 143.890625 C 35.089844 143.890625 33.722656 145.292969 33.722656 146.972656 L 33.722656 158.492188 C 33.722656 160.207031 35.089844 161.574219 36.796875 161.574219 L 53.195312 161.574219 C 54.902344 161.574219 56.269531 160.207031 56.269531 158.492188 L 56.269531 146.972656 C 56.269531 145.292969 54.902344 143.890625 53.195312 143.890625 " fill-opacity="1" fill-rule="nonzero"/><path fill="#040606" d="M 89.527344 143.890625 L 73.132812 143.890625 C 71.421875 143.890625 70.058594 145.292969 70.058594 146.972656 L 70.058594 158.492188 C 70.058594 160.207031 71.421875 161.574219 73.132812 161.574219 L 89.527344 161.574219 C 91.238281 161.574219 92.601562 160.207031 92.601562 158.492188 L 92.601562 146.972656 C 92.601562 145.292969 91.238281 143.890625 89.527344 143.890625 " fill-opacity="1" fill-rule="nonzero"/><path fill="#040606" d="M 125.863281 143.890625 L 109.464844 143.890625 C 107.757812 143.890625 106.390625 145.292969 106.390625 146.972656 L 106.390625 158.492188 C 106.390625 160.207031 107.757812 161.574219 109.464844 161.574219 L 125.863281 161.574219 C 127.570312 161.574219 128.9375 160.207031 128.9375 158.492188 L 128.9375 146.972656 C 128.9375 145.292969 127.570312 143.890625 125.863281 143.890625 " fill-opacity="1" fill-rule="nonzero"/><path fill="#040606" d="M 162.195312 143.890625 L 145.800781 143.890625 C 144.089844 143.890625 142.726562 145.292969 142.726562 146.972656 L 142.726562 158.492188 C 142.726562 160.207031 144.089844 161.574219 145.800781 161.574219 L 162.195312 161.574219 C 163.902344 161.574219 165.269531 160.207031 165.269531 158.492188 L 165.269531 146.972656 C 165.269531 145.292969 163.902344 143.890625 162.195312 143.890625 " fill-opacity="1" fill-rule="nonzero"/><path fill="#040606" d="M 198.53125 143.890625 L 182.132812 143.890625 C 180.425781 143.890625 179.058594 145.292969 179.058594 146.972656 L 179.058594 158.492188 C 179.058594 160.207031 180.425781 161.574219 182.132812 161.574219 L 198.53125 161.574219 C 200.238281 161.574219 201.605469 160.207031 201.605469 158.492188 L 201.605469 146.972656 C 201.605469 145.292969 200.238281 143.890625 198.53125 143.890625 " fill-opacity="1" fill-rule="nonzero"/><path fill="#040606" d="M 234.863281 143.890625 L 218.46875 143.890625 C 216.757812 143.890625 215.394531 145.292969 215.394531 146.972656 L 215.394531 158.492188 C 215.394531 160.207031 216.757812 161.574219 218.46875 161.574219 L 234.863281 161.574219 C 236.570312 161.574219 237.9375 160.207031 237.9375 158.492188 L 237.9375 146.972656 C 237.9375 145.292969 236.570312 143.890625 234.863281 143.890625 " fill-opacity="1" fill-rule="nonzero"/><path fill="#040606" d="M 271.199219 143.890625 L 254.800781 143.890625 C 253.09375 143.890625 251.726562 145.292969 251.726562 146.972656 L 251.726562 158.492188 C 251.726562 160.207031 253.09375 161.574219 254.800781 161.574219 L 271.199219 161.574219 C 272.90625 161.574219 274.273438 160.207031 274.273438 158.492188 L 274.273438 146.972656 C 274.273438 145.292969 272.90625 143.890625 271.199219 143.890625 " fill-opacity="1" fill-rule="nonzero"/><path fill="#040606" d="M 307.53125 143.890625 L 291.136719 143.890625 C 289.425781 143.890625 288.0625 145.292969 288.0625 146.972656 L 288.0625 158.492188 C 288.0625 160.207031 289.425781 161.574219 291.136719 161.574219 L 307.53125 161.574219 C 309.238281 161.574219 310.605469 160.207031 310.605469 158.492188 L 310.605469 146.972656 C 310.605469 145.292969 309.238281 143.890625 307.53125 143.890625 " fill-opacity="1" fill-rule="nonzero"/><path fill="#040606" d="M 343.898438 143.890625 L 327.46875 143.890625 C 325.761719 143.890625 324.394531 145.292969 324.394531 146.972656 L 324.394531 158.492188 C 324.394531 160.207031 325.761719 161.574219 327.46875 161.574219 L 343.898438 161.574219 C 345.574219 161.574219 346.941406 160.207031 346.941406 158.492188 L 346.941406 146.972656 C 346.941406 145.292969 345.574219 143.890625 343.898438 143.890625 " fill-opacity="1" fill-rule="nonzero"/><path fill="#040606" d="M 67.167969 177.609375 L 36.796875 177.609375 C 35.089844 177.609375 33.722656 178.980469 33.722656 180.691406 L 33.722656 192.210938 C 33.722656 193.894531 35.089844 195.296875 36.796875 195.296875 L 67.167969 195.296875 C 68.878906 195.296875 70.242188 193.894531 70.242188 192.210938 L 70.242188 180.691406 C 70.242188 178.980469 68.878906 177.609375 67.167969 177.609375 " fill-opacity="1" fill-rule="nonzero"/><path fill="#040606" d="M 108.96875 177.609375 L 92.570312 177.609375 C 90.863281 177.609375 89.496094 178.980469 89.496094 180.691406 L 89.496094 192.210938 C 89.496094 193.894531 90.863281 195.296875 92.570312 195.296875 L 108.96875 195.296875 C 110.675781 195.296875 112.042969 193.894531 112.042969 192.210938 L 112.042969 180.691406 C 112.042969 178.980469 110.675781 177.609375 108.96875 177.609375 " fill-opacity="1" fill-rule="nonzero"/><path fill="#040606" d="M 144.929688 177.609375 L 128.503906 177.609375 C 126.824219 177.609375 125.425781 178.980469 125.425781 180.691406 L 125.425781 192.210938 C 125.425781 193.894531 126.824219 195.296875 128.503906 195.296875 L 144.929688 195.296875 C 146.605469 195.296875 148.003906 193.894531 148.003906 192.210938 L 148.003906 180.691406 C 148.003906 178.980469 146.605469 177.609375 144.929688 177.609375 " fill-opacity="1" fill-rule="nonzero"/><path fill="#040606" d="M 180.859375 177.609375 L 164.464844 177.609375 C 162.753906 177.609375 161.390625 178.980469 161.390625 180.691406 L 161.390625 192.210938 C 161.390625 193.894531 162.753906 195.296875 164.464844 195.296875 L 180.859375 195.296875 C 182.566406 195.296875 183.933594 193.894531 183.933594 192.210938 L 183.933594 180.691406 C 183.933594 178.980469 182.566406 177.609375 180.859375 177.609375 " fill-opacity="1" fill-rule="nonzero"/><path fill="#040606" d="M 216.820312 177.609375 L 200.425781 177.609375 C 198.714844 177.609375 197.351562 178.980469 197.351562 180.691406 L 197.351562 192.210938 C 197.351562 193.894531 198.714844 195.296875 200.425781 195.296875 L 216.820312 195.296875 C 218.53125 195.296875 219.894531 193.894531 219.894531 192.210938 L 219.894531 180.691406 C 219.894531 178.980469 218.53125 177.609375 216.820312 177.609375 " fill-opacity="1" fill-rule="nonzero"/><path fill="#040606" d="M 252.78125 177.609375 L 236.355469 177.609375 C 234.679688 177.609375 233.28125 178.980469 233.28125 180.691406 L 233.28125 192.210938 C 233.28125 193.894531 234.679688 195.296875 236.355469 195.296875 L 252.78125 195.296875 C 254.460938 195.296875 255.855469 193.894531 255.855469 192.210938 L 255.855469 180.691406 C 255.855469 178.980469 254.460938 177.609375 252.78125 177.609375 " fill-opacity="1" fill-rule="nonzero"/><path fill="#040606" d="M 288.742188 177.609375 L 272.316406 177.609375 C 270.609375 177.609375 269.242188 178.980469 269.242188 180.691406 L 269.242188 192.210938 C 269.242188 193.894531 270.609375 195.296875 272.316406 195.296875 L 288.742188 195.296875 C 290.421875 195.296875 291.789062 193.894531 291.789062 192.210938 L 291.789062 180.691406 C 291.789062 178.980469 290.421875 177.609375 288.742188 177.609375 " fill-opacity="1" fill-rule="nonzero"/><path fill="#040606" d="M 337.839844 177.609375 L 307.46875 177.609375 C 305.761719 177.609375 304.394531 178.980469 304.394531 180.691406 L 304.394531 192.210938 C 304.394531 193.894531 305.761719 195.296875 307.46875 195.296875 L 337.839844 195.296875 C 339.550781 195.296875 340.914062 193.894531 340.914062 192.210938 L 340.914062 180.691406 C 340.914062 178.980469 339.550781 177.609375 337.839844 177.609375 " fill-opacity="1" fill-rule="nonzero"/><path fill="#040606" d="M 53.195312 211.019531 L 36.796875 211.019531 C 35.089844 211.019531 33.722656 212.386719 33.722656 214.101562 L 33.722656 225.589844 C 33.722656 227.300781 35.089844 228.671875 36.796875 228.671875 L 53.195312 228.671875 C 54.902344 228.671875 56.269531 227.300781 56.269531 225.589844 L 56.269531 214.101562 C 56.269531 212.386719 54.902344 211.019531 53.195312 211.019531 " fill-opacity="1" fill-rule="nonzero"/><path fill="#040606" d="M 89.25 211.019531 L 72.851562 211.019531 C 71.144531 211.019531 69.777344 212.386719 69.777344 214.101562 L 69.777344 225.589844 C 69.777344 227.300781 71.144531 228.671875 72.851562 228.671875 L 89.25 228.671875 C 90.957031 228.671875 92.324219 227.300781 92.324219 225.589844 L 92.324219 214.101562 C 92.324219 212.386719 90.957031 211.019531 89.25 211.019531 " fill-opacity="1" fill-rule="nonzero"/><path fill="#040606" d="M 125.335938 211.019531 L 108.90625 211.019531 C 107.199219 211.019531 105.832031 212.386719 105.832031 214.101562 L 105.832031 225.589844 C 105.832031 227.300781 107.199219 228.671875 108.90625 228.671875 L 125.335938 228.671875 C 127.011719 228.671875 128.378906 227.300781 128.378906 225.589844 L 128.378906 214.101562 C 128.378906 212.386719 127.011719 211.019531 125.335938 211.019531 " fill-opacity="1" fill-rule="nonzero"/><path fill="#040606" d="M 161.359375 211.019531 L 144.960938 211.019531 C 143.253906 211.019531 141.886719 212.386719 141.886719 214.101562 L 141.886719 225.589844 C 141.886719 227.300781 143.253906 228.671875 144.960938 228.671875 L 161.359375 228.671875 C 163.066406 228.671875 164.433594 227.300781 164.433594 225.589844 L 164.433594 214.101562 C 164.433594 212.386719 163.066406 211.019531 161.359375 211.019531 " fill-opacity="1" fill-rule="nonzero"/><path fill="#040606" d="M 197.441406 211.019531 L 181.015625 211.019531 C 179.308594 211.019531 177.941406 212.386719 177.941406 214.101562 L 177.941406 225.589844 C 177.941406 227.300781 179.308594 228.671875 181.015625 228.671875 L 197.441406 228.671875 C 199.121094 228.671875 200.488281 227.300781 200.488281 225.589844 L 200.488281 214.101562 C 200.488281 212.386719 199.121094 211.019531 197.441406 211.019531 " fill-opacity="1" fill-rule="nonzero"/><path fill="#040606" d="M 233.496094 211.019531 L 217.070312 211.019531 C 215.394531 211.019531 213.996094 212.386719 213.996094 214.101562 L 213.996094 225.589844 C 213.996094 227.300781 215.394531 228.671875 217.070312 228.671875 L 233.496094 228.671875 C 235.175781 228.671875 236.570312 227.300781 236.570312 225.589844 L 236.570312 214.101562 C 236.570312 212.386719 235.175781 211.019531 233.496094 211.019531 " fill-opacity="1" fill-rule="nonzero"/><path fill="#040606" d="M 269.550781 211.019531 L 253.125 211.019531 C 251.449219 211.019531 250.050781 212.386719 250.050781 214.101562 L 250.050781 225.589844 C 250.050781 227.300781 251.449219 228.671875 253.125 228.671875 L 269.550781 228.671875 C 271.230469 228.671875 272.625 227.300781 272.625 225.589844 L 272.625 214.101562 C 272.625 212.386719 271.230469 211.019531 269.550781 211.019531 " fill-opacity="1" fill-rule="nonzero"/><path fill="#040606" d="M 305.605469 211.019531 L 289.179688 211.019531 C 287.5 211.019531 286.105469 212.386719 286.105469 214.101562 L 286.105469 225.589844 C 286.105469 227.300781 287.5 228.671875 289.179688 228.671875 L 305.605469 228.671875 C 307.316406 228.671875 308.679688 227.300781 308.679688 225.589844 L 308.679688 214.101562 C 308.679688 212.386719 307.316406 211.019531 305.605469 211.019531 " fill-opacity="1" fill-rule="nonzero"/><path fill="#040606" d="M 341.660156 211.019531 L 325.234375 211.019531 C 323.554688 211.019531 322.191406 212.386719 322.191406 214.101562 L 322.191406 225.589844 C 322.191406 227.300781 323.554688 228.671875 325.234375 228.671875 L 341.660156 228.671875 C 343.367188 228.671875 344.734375 227.300781 344.734375 225.589844 L 344.734375 214.101562 C 344.734375 212.386719 343.367188 211.019531 341.660156 211.019531 " fill-opacity="1" fill-rule="nonzero"/><path fill="#040606" d="M 53.195312 244.921875 L 36.796875 244.921875 C 35.089844 244.921875 33.722656 246.292969 33.722656 248.007812 L 33.722656 259.527344 C 33.722656 261.207031 35.089844 262.609375 36.796875 262.609375 L 53.195312 262.609375 C 54.902344 262.609375 56.269531 261.207031 56.269531 259.527344 L 56.269531 248.007812 C 56.269531 246.292969 54.902344 244.921875 53.195312 244.921875 " fill-opacity="1" fill-rule="nonzero"/><path fill="#040606" d="M 90.585938 244.921875 L 74.15625 244.921875 C 72.449219 244.921875 71.082031 246.292969 71.082031 248.007812 L 71.082031 259.527344 C 71.082031 261.207031 72.449219 262.609375 74.15625 262.609375 L 90.585938 262.609375 C 92.261719 262.609375 93.660156 261.207031 93.660156 259.527344 L 93.660156 248.007812 C 93.660156 246.292969 92.261719 244.921875 90.585938 244.921875 " fill-opacity="1" fill-rule="nonzero"/><path fill="#040606" d="M 269.550781 244.921875 L 253.125 244.921875 C 251.449219 244.921875 250.050781 246.292969 250.050781 248.007812 L 250.050781 259.527344 C 250.050781 261.207031 251.449219 262.609375 253.125 262.609375 L 269.550781 262.609375 C 271.230469 262.609375 272.625 261.207031 272.625 259.527344 L 272.625 248.007812 C 272.625 246.292969 271.230469 244.921875 269.550781 244.921875 " fill-opacity="1" fill-rule="nonzero"/><path fill="#040606" d="M 305.605469 244.921875 L 289.179688 244.921875 C 287.5 244.921875 286.105469 246.292969 286.105469 248.007812 L 286.105469 259.527344 C 286.105469 261.207031 287.5 262.609375 289.179688 262.609375 L 305.605469 262.609375 C 307.316406 262.609375 308.679688 261.207031 308.679688 259.527344 L 308.679688 248.007812 C 308.679688 246.292969 307.316406 244.921875 305.605469 244.921875 " fill-opacity="1" fill-rule="nonzero"/><path fill="#040606" d="M 341.660156 244.921875 L 325.234375 244.921875 C 323.554688 244.921875 322.191406 246.292969 322.191406 248.007812 L 322.191406 259.527344 C 322.191406 261.207031 323.554688 262.609375 325.234375 262.609375 L 341.660156 262.609375 C 343.367188 262.609375 344.734375 261.207031 344.734375 259.527344 L 344.734375 248.007812 C 344.734375 246.292969 343.367188 244.921875 341.660156 244.921875 " fill-opacity="1" fill-rule="nonzero"/><path fill="#040606" d="M 232.039062 244.863281 L 110.582031 244.863281 C 108.875 244.863281 107.507812 246.261719 107.507812 247.945312 L 107.507812 259.058594 C 107.507812 260.738281 108.875 262.140625 110.582031 262.140625 L 232.039062 262.140625 C 233.746094 262.140625 235.113281 260.738281 235.113281 259.058594 L 235.113281 247.945312 C 235.113281 246.261719 233.746094 244.863281 232.039062 244.863281 " fill-opacity="1" fill-rule="nonzero"/></svg>